<svg height="512pt" viewBox="-61 0 511 512" width="512pt" xmlns="http://www.w3.org/2000/svg"><path d="m276.878906 113.660156-28.675781 28.675782h-73.351563l-128.132812.011718-28.664062-28.6875c-8.917969-8.917968-13.367188-20.59375-13.367188-32.289062 0-11.695313 4.449219-23.371094 13.367188-32.289063 17.816406-17.835937 46.742187-17.835937 64.578124 0l19.164063 19.171875v-22.578125c0-25.230469 20.445313-45.675781 45.652344-45.675781 25.230469 0 45.679687 20.445312 45.679687 45.675781v22.578125l19.171875-19.171875c17.835938-17.835937 46.742188-17.835937 64.578125 0 17.835938 17.835938 17.835938 46.742188 0 64.578125zm0 0" fill="#ff3b6a"/><path d="m174.851562 142.335938-128.132812.011718-28.664062-28.6875c-8.917969-8.917968-13.367188-20.59375-13.367188-32.289062 0-11.695313 4.449219-23.371094 13.367188-32.289063 17.816406-17.835937 46.742187-17.835937 64.578124 0l19.164063 19.171875v-22.578125c0-25.230469 20.445313-45.675781 45.652344-45.675781-45.457031 0-6.734375 119.433594 27.402343 142.335938zm0 0" fill="#e21e56"/><path d="m294.445312 249.351562v213.660157c0 13.535156-5.484374 25.773437-14.351562 34.640625-8.863281 8.863281-21.113281 14.347656-34.636719 14.347656-27.058593 0-48.996093-21.929688-48.996093-48.988281 0 13.535156-5.484376 25.773437-14.351563 34.640625-8.863281 8.863281-21.105469 14.347656-34.636719 14.347656-27.058594 0-48.988281-21.929688-48.988281-48.988281 0 13.535156-5.480469 25.773437-14.347656 34.640625-8.867188 8.863281-21.125 14.347656-34.648438 14.347656-27.058593 0-48.988281-21.929688-48.988281-48.988281v-213.660157c0-80.761718 65.140625-146.3125 145.75-146.960937.40625-.007813.816406-.007813 1.222656-.007813 81.171875 0 146.972656 65.796876 146.972656 146.96875zm0 0" fill="#ff933b"/><path d="m334.027344 320.292969c12.429687 10.402343 23.222656 26.386719 29.640625 45.761719 13.371093 40.367187 2.726562 80.203124-23.773438 88.984374-26.496093 8.777344-58.808593-16.828124-72.183593-57.199218-9.84375-29.714844-6.675782-59.15625 6.269531-76.113282" fill="#e21e56"/><path d="m74.65625 254.785156c-.566406-.417968-18.453125-13.984375-24.492188-38.097656 0 0-22.449218 80.296875 32.667969 135.414062 0 0-29.941406-4.085937-36.058593-29.261718 0 0-4.085938 100.019531 51.710937 140.171875 0 13.535156-5.480469 25.773437-14.347656 34.640625-8.867188 8.863281-21.125 14.347656-34.648438 14.347656-27.058593 0-48.988281-21.929688-48.988281-48.988281v-213.660157c0-80.761718 65.140625-146.3125 145.75-146.960937-66.449219 1.328125-91.195312 110.453125-71.59375 152.394531zm0 0" fill="#ed761d"/><path d="m335.652344 381.777344c0 22.234375-6.195313 42.261718-16.082032 56.308594-9.035156 12.835937-21.148437 20.6875-34.472656 20.6875-27.914062 0-50.53125-34.472657-50.53125-76.996094 0-31.304688 12.257813-58.257813 29.886719-70.277344l6.785156 2.066406 50.660157 15.453125c8.53125 13.777344 13.753906 32.34375 13.753906 52.757813zm0 0" fill="#e21e56"/><path d="m335.652344 381.777344c0 22.234375-6.195313 42.261718-16.082032 56.308594-3 .855468-6.089843 1.292968-9.253906 1.292968-27.914062 0-50.542968-34.46875-50.542968-76.992187 0-18.527344 4.304687-35.527344 11.464843-48.820313l50.660157 15.453125c8.53125 13.777344 13.753906 32.34375 13.753906 52.757813zm0 0" fill="#ff3b6a"/><path d="m223.875 263.300781c0 18.332031-14.863281 33.195313-33.195312 33.195313-18.332032 0-33.195313-14.863282-33.195313-33.195313s14.863281-33.195312 33.195313-33.195312c18.332031 0 33.195312 14.863281 33.195312 33.195312zm0 0" fill="#384649"/><path d="m209.84375 255.925781c0 6.511719-5.277344 11.792969-11.789062 11.792969-6.511719 0-11.792969-5.28125-11.792969-11.792969s5.28125-11.789062 11.792969-11.789062c6.511718 0 11.789062 5.277343 11.789062 11.789062zm0 0" fill="#fff"/><path d="m389.703125 333.460938c-6.984375-1.273438-14.328125-2.296876-21.898437-3.050782-23.351563-2.347656-48.945313-2.191406-73.320313.699219-16.6875 1.976563-31.296875-11.214844-31.296875-28.015625v-35.695312c0-6.347657 2.089844-12.175782 5.566406-16.855469l.09375-.125c6.078125-8.101563 16.34375-12.757813 27.195313-10.816407 44.058593 7.863282 81.421875 41.082032 92.34375 87.414063.5 2.140625.917969 4.292969 1.316406 6.445313zm0 0" fill="#ad7136"/><path d="m367.804688 330.410156c-23.351563-2.347656-48.945313-2.191406-73.320313.699219-16.6875 1.976563-31.296875-11.214844-31.296875-28.015625v-35.695312c0-6.347657 2.089844-12.175782 5.566406-16.855469l.09375-.125c4.5 28.207031 36.050782 69.144531 98.863282 79.972656.03125.011719.0625.011719.09375.019531zm0 0" fill="#8c531f"/></svg>